# xmcd
#
# Track frame offsets: 
#        150
#        13166
#        29567
#        30602
#        35182
#        50580
#        67728
#        81600
#        82557
#        98241
#        114433
#        117641
#        132990
#        133649
#        138229
#        140671
#        151841
#        153599
#        161419
#        177095
#        178046
#        185580
#        202665
#        219421
#        236582
#        243426
#
# Disc length: 3496 seconds
#
# Revision: 0
# Processed by: cddbd v1.5.1PL2 Copyright (c) Steve Scherf et al.
# Submitted via: ExactAudioCopy v0.95a5
#
DISCID=680da61a
DTITLE=Erste Allgemeine Verunsicherung - Himbeerland
DYEAR=1900
DGENRE=Acid
TTITLE0=Himbeerland I
TTITLE1=Die Pille für den Mann
TTITLE2=Muttertagsgruß
TTITLE3=Mütterlein
TTITLE4=Wirf die Motorsäge an
TTITLE5=Der Wein von Mykonos
TTITLE6=3 weiße Tauben
TTITLE7=Tanzmusik auf Bestellung
TTITLE8=Lez Dance
TTITLE9=Wenn Hausfrauen träumen
TTITLE10=I shot the Golfball
TTITLE11=Hasta La Vista
TTITLE12=Madonna Präambel
TTITLE13=Die Madonne von San Jose
TTITLE14=10 kleine Japanesen
TTITLE15=Wir Schwyzer
TTITLE16=Dürüdldü Präambel
TTITLE17=Dürüdldü
TTITLE18=Amore Romantice
TTITLE19=Zum Grossmuttertag
TTITLE20=Omama
TTITLE21=Da-Da-Datenautobahn
TTITLE22=Ist da ein anderer Mann
TTITLE23=Asawa Wuwu
TTITLE24=3 schwule Gartenzwerge
TTITLE25=Himbeerland II
EXTD=
EXTT0=
EXTT1=
EXTT2=
EXTT3=
EXTT4=
EXTT5=
EXTT6=
EXTT7=
EXTT8=
EXTT9=
EXTT10=
EXTT11=
EXTT12=
EXTT13=
EXTT14=
EXTT15=
EXTT16=
EXTT17=
EXTT18=
EXTT19=
EXTT20=
EXTT21=
EXTT22=
EXTT23=
EXTT24=
EXTT25=
PLAYORDER=
